# Blender v2.78 (sub 0) OBJ File: '19.blend'
# www.blender.org
mtllib Knife_01.mtl
o Knife_Circle.028
v 0.000043 0.582052 -0.794476
v -0.137077 0.582052 -0.741773
v -0.248182 0.582052 -0.137587
v -0.176639 0.582052 0.613858
v 0.000043 0.582052 0.716862
v 0.176725 0.582052 0.613858
v 0.248268 0.582052 -0.137587
v 0.137163 0.582052 -0.741773
v 0.000043 3.903685 -0.794476
v -0.137077 3.903685 -0.741773
v -0.248182 3.903685 -0.137587
v -0.176639 3.903685 0.613858
v 0.000043 3.903685 0.716862
v 0.176725 3.903685 0.613858
v 0.248268 3.903685 -0.137587
v 0.137163 3.903685 -0.741773
v 0.000043 3.903685 -0.693422
v -0.077826 3.903685 -0.530622
v -0.110080 3.903685 -0.137587
v -0.077826 3.903685 0.580487
v 0.000043 3.903685 0.590297
v 0.077912 3.903685 0.580487
v 0.110166 3.903685 -0.137587
v 0.077912 3.903685 -0.530622
v 0.000043 8.681935 -0.693422
v -0.077826 8.681935 -0.530622
v -0.093141 8.681935 -0.137587
v -0.069492 8.681935 0.580837
v 0.000043 8.681935 0.589597
v 0.069577 8.681935 0.580837
v 0.093227 8.681935 -0.137587
v 0.077912 8.681935 -0.530622
v 0.000043 2.973486 0.716862
v 0.000043 2.043286 0.716862
v 0.000043 1.113087 0.716862
v 0.176725 1.113087 0.613858
v 0.176725 2.043286 0.613858
v 0.176725 2.973486 0.613858
v -0.248182 2.973486 -0.137587
v -0.248182 2.043286 -0.137587
v -0.248182 1.113087 -0.137587
v -0.176639 1.113087 0.613858
v -0.176639 2.043286 0.613858
v -0.176639 2.973486 0.613858
v 0.000043 2.973486 -0.573439
v 0.000043 2.043286 -0.577680
v 0.000043 1.113087 -0.580742
v -0.137077 1.113087 -0.528039
v -0.137077 2.043286 -0.524977
v -0.137077 2.973486 -0.520736
v 0.137163 2.973486 -0.520736
v 0.137163 2.043286 -0.524977
v 0.137163 1.113087 -0.528039
v 0.248268 1.113087 -0.137587
v 0.248268 2.043286 -0.137587
v 0.248268 2.973486 -0.137587
v 0.000043 0.188281 -0.794476
v -0.137077 0.188281 -0.741773
v -0.248182 0.188281 -0.137587
v -0.176639 0.188281 0.613858
v 0.000043 0.188281 0.716862
v 0.176725 0.188281 0.613858
v 0.248268 0.188281 -0.137587
v 0.137163 0.188281 -0.741773
v 0.000043 3.621336 -0.793431
v -0.248182 3.621336 -0.137587
v 0.000043 3.621336 0.716862
v 0.248268 3.621336 -0.137587
v -0.137077 3.621336 -0.740729
v -0.176639 3.621336 0.613858
v 0.176725 3.621336 0.613858
v 0.137163 3.621336 -0.740728
v 0.000043 9.312291 -0.530622
v 0.000043 9.796984 -0.137587
v 0.000043 10.239000 0.583757
v 0.037753 8.974264 -0.489058
v 0.030010 9.493550 -0.137587
v 0.015737 9.925184 0.583098
v 0.000043 9.925915 0.585072
v -0.015610 9.925997 0.583100
v -0.037027 8.979440 -0.489058
v -0.029794 9.494868 -0.137587
v -0.103221 0.002046 -0.577408
v 0.000043 0.002046 -0.617098
v -0.186893 0.002046 -0.122399
v -0.133015 0.002046 0.443508
v 0.000043 0.002046 0.521080
v 0.133101 0.002046 0.443508
v 0.186979 0.002046 -0.122400
v 0.103307 0.002046 -0.577408
v 0.000043 0.002046 -0.076077
vn 0.5037 0.0000 0.8639
vn -0.9955 0.0000 0.0948
vn -0.3588 -0.0035 -0.9334
vn 0.3588 -0.0035 -0.9334
vn 0.9955 0.0000 0.0948
vn -0.5037 0.0000 0.8639
vn -0.9835 -0.0003 -0.1810
vn 0.9835 -0.0003 -0.1810
vn 0.0000 1.0000 0.0000
vn 0.9750 0.0438 -0.2178
vn 0.9615 0.0005 -0.2747
vn 0.9608 0.0006 -0.2771
vn -0.9750 0.0438 -0.2178
vn -0.9615 0.0005 -0.2747
vn -0.9608 0.0006 -0.2771
vn 0.3358 0.3517 -0.8738
vn 0.3588 0.0031 -0.9334
vn 0.3588 0.0043 -0.9334
vn -0.3358 0.3517 -0.8738
vn -0.3588 0.0031 -0.9334
vn -0.3588 0.0043 -0.9334
vn -0.3588 0.0000 -0.9334
vn 0.3588 0.0000 -0.9334
vn -0.9835 0.0000 -0.1809
vn 0.9835 0.0000 -0.1809
vn -0.9316 -0.3206 -0.1713
vn -0.3728 -0.6723 0.6395
vn 0.9482 -0.3047 0.0903
vn 0.2681 -0.6644 -0.6976
vn -0.2681 -0.6644 -0.6976
vn -0.9482 -0.3047 0.0903
vn 0.3728 -0.6723 0.6395
vn 0.9316 -0.3206 -0.1713
vn 0.9749 -0.0373 -0.2196
vn -0.9749 -0.0373 -0.2196
vn 0.3420 -0.3022 -0.8898
vn -0.3420 -0.3022 -0.8898
vn 0.0000 -1.0000 0.0000
vn -0.9992 0.0026 0.0389
vn 0.9992 0.0026 0.0389
vn -0.1250 0.0001 0.9922
vn -0.9982 0.0018 -0.0604
vn 0.9982 0.0018 -0.0604
vn 0.1250 0.0001 0.9922
vn 0.9924 0.0958 -0.0769
vn 0.1250 0.0036 0.9922
vn -0.9983 0.0569 0.0092
vn 0.9983 0.0569 0.0093
vn -0.1250 0.0036 0.9922
vn -0.9924 0.0960 -0.0772
vn 0.1250 0.0042 0.9921
vn -0.1250 0.0042 0.9921
vn -0.9021 0.0000 -0.4315
vn 0.9021 0.0000 -0.4315
vn -0.8872 0.1810 -0.4244
vn 0.8870 0.1822 -0.4243
vn 0.9881 0.0965 -0.1198
vn 0.9572 0.0723 -0.2801
vn 0.9967 0.0738 -0.0348
vn -0.9881 0.0963 -0.1197
vn -0.9967 0.0737 -0.0348
vn -0.9578 0.0719 -0.2784
usemtl FF5722
s off
f 67//1 71//1 14//1 13//1
f 66//2 70//2 12//2 11//2
f 65//3 69//3 10//3 9//3
f 72//4 65//4 9//4 16//4
f 71//5 68//5 15//5 14//5
f 70//6 67//6 13//6 12//6
f 69//7 66//7 11//7 10//7
f 68//8 72//8 16//8 15//8
f 16//9 9//9 17//9 24//9
f 14//9 15//9 23//9 22//9
f 12//9 13//9 21//9 20//9
f 10//9 11//9 19//9 18//9
f 15//9 16//9 24//9 23//9
f 13//9 14//9 22//9 21//9
f 11//9 12//9 20//9 19//9
f 9//9 10//9 18//9 17//9
f 7//10 8//10 53//10 54//10
f 54//11 53//11 52//11 55//11
f 55//12 52//12 51//12 56//12
f 2//13 3//13 41//13 48//13
f 48//14 41//14 40//14 49//14
f 49//15 40//15 39//15 50//15
f 4//6 5//6 35//6 42//6
f 42//6 35//6 34//6 43//6
f 43//6 34//6 33//6 44//6
f 6//5 7//5 54//5 36//5
f 36//5 54//5 55//5 37//5
f 37//5 55//5 56//5 38//5
f 8//16 1//16 47//16 53//16
f 53//17 47//17 46//17 52//17
f 52//18 46//18 45//18 51//18
f 1//19 2//19 48//19 47//19
f 47//20 48//20 49//20 46//20
f 46//21 49//21 50//21 45//21
f 3//2 4//2 42//2 41//2
f 41//2 42//2 43//2 40//2
f 40//2 43//2 44//2 39//2
f 5//1 6//1 36//1 35//1
f 35//1 36//1 37//1 34//1
f 34//1 37//1 38//1 33//1
f 6//1 5//1 61//1 62//1
f 4//2 3//2 59//2 60//2
f 2//22 1//22 57//22 58//22
f 1//23 8//23 64//23 57//23
f 7//5 6//5 62//5 63//5
f 5//6 4//6 60//6 61//6
f 3//24 2//24 58//24 59//24
f 8//25 7//25 63//25 64//25
f 59//26 58//26 83//26 85//26
f 61//27 60//27 86//27 87//27
f 63//28 62//28 88//28 89//28
f 57//29 64//29 90//29 84//29
f 58//30 57//30 84//30 83//30
f 60//31 59//31 85//31 86//31
f 62//32 61//32 87//32 88//32
f 64//33 63//33 89//33 90//33
f 56//34 51//34 72//34 68//34
f 50//35 39//35 66//35 69//35
f 44//6 33//6 67//6 70//6
f 38//5 56//5 68//5 71//5
f 51//36 45//36 65//36 72//36
f 45//37 50//37 69//37 65//37
f 39//2 44//2 70//2 66//2
f 33//1 38//1 71//1 67//1
f 90//38 89//38 91//38
f 88//38 87//38 91//38
f 86//38 85//38 91//38
f 83//38 84//38 91//38
f 84//38 90//38 91//38
f 89//38 88//38 91//38
f 87//38 86//38 91//38
f 85//38 83//38 91//38
usemtl 455A64
f 19//39 20//39 28//39 27//39
f 22//40 23//40 31//40 30//40
f 20//41 21//41 29//41 28//41
f 18//42 19//42 27//42 26//42
f 23//43 24//43 32//43 31//43
f 21//44 22//44 30//44 29//44
f 31//45 32//45 76//45 77//45
f 29//46 30//46 78//46 79//46
f 27//47 28//47 80//47 82//47
f 30//48 31//48 77//48 78//48
f 28//49 29//49 79//49 80//49
f 26//50 27//50 82//50 81//50
f 79//51 78//51 75//51
f 80//52 79//52 75//52
usemtl 78909C
f 17//53 18//53 26//53 25//53
f 24//54 17//54 25//54 32//54
f 25//55 26//55 81//55
f 32//56 25//56 76//56
f 77//57 76//57 73//57 74//57
f 76//58 25//58 73//58
f 78//59 77//59 74//59 75//59
f 81//60 82//60 74//60 73//60
f 82//61 80//61 75//61 74//61
f 81//62 73//62 25//62
